<?xml version="1.0" encoding="UTF-8" standalone="no"?>
<!DOCTYPE svg PUBLIC "-//W3C//DTD SVG 1.1//EN" "http://www.w3.org/Graphics/SVG/1.1/DTD/svg11.dtd">
<svg width="100%" height="100%" viewBox="0 0 900 850" version="1.1" xmlns="http://www.w3.org/2000/svg" xmlns:xlink="http://www.w3.org/1999/xlink" xml:space="preserve" xmlns:serif="http://www.serif.com/" style="fill-rule:evenodd;clip-rule:evenodd;stroke-linejoin:round;stroke-miterlimit:2;">
    <g transform="matrix(1,0,0,1,-64,-89)">
        <g transform="matrix(30.1049,0,0,30.7351,-3496.91,-4090.74)">
            <g transform="matrix(23.9936,0,0,23.9936,120.554,156.814)">
                <path d="M0.295,0.01C0.246,0.01 0.203,-0.002 0.165,-0.026C0.126,-0.05 0.096,-0.083 0.074,-0.124C0.051,-0.165 0.04,-0.212 0.04,-0.263C0.04,-0.314 0.051,-0.361 0.074,-0.402C0.096,-0.443 0.126,-0.476 0.165,-0.5C0.203,-0.524 0.246,-0.536 0.295,-0.536C0.342,-0.536 0.384,-0.527 0.423,-0.508C0.461,-0.489 0.49,-0.463 0.51,-0.43L0.453,-0.36C0.442,-0.375 0.429,-0.389 0.412,-0.402C0.395,-0.415 0.378,-0.425 0.359,-0.432C0.34,-0.439 0.322,-0.443 0.305,-0.443C0.273,-0.443 0.245,-0.435 0.22,-0.42C0.195,-0.404 0.175,-0.382 0.16,-0.355C0.145,-0.328 0.138,-0.297 0.138,-0.263C0.138,-0.229 0.146,-0.199 0.161,-0.172C0.176,-0.145 0.197,-0.123 0.222,-0.107C0.247,-0.091 0.275,-0.083 0.306,-0.083C0.324,-0.083 0.341,-0.086 0.359,-0.092C0.376,-0.098 0.392,-0.107 0.408,-0.119C0.424,-0.131 0.439,-0.146 0.453,-0.163L0.51,-0.093C0.489,-0.063 0.458,-0.038 0.419,-0.019C0.379,0 0.338,0.01 0.295,0.01Z" style="fill-rule:nonzero;"/>
            </g>
            <g transform="matrix(23.9936,0,0,23.9936,132.191,156.814)">
                <path d="M0.129,-0L0.129,-0.584C0.129,-0.614 0.136,-0.641 0.149,-0.664C0.162,-0.687 0.181,-0.706 0.204,-0.719C0.227,-0.732 0.254,-0.739 0.285,-0.739C0.306,-0.739 0.326,-0.735 0.345,-0.727C0.364,-0.719 0.379,-0.708 0.39,-0.695L0.355,-0.616C0.346,-0.624 0.337,-0.631 0.327,-0.636C0.316,-0.641 0.306,-0.643 0.297,-0.643C0.283,-0.643 0.271,-0.641 0.262,-0.637C0.252,-0.632 0.245,-0.626 0.24,-0.617C0.235,-0.608 0.233,-0.597 0.233,-0.584L0.233,-0L0.129,-0ZM0.045,-0.421L0.045,-0.516L0.357,-0.516L0.357,-0.421L0.045,-0.421Z" style="fill-rule:nonzero;"/>
            </g>
        </g>
        <g transform="matrix(1.00066,0,0,1,-88.2939,-46.1782)">
            <g transform="matrix(0.816461,0,0,1.06651,99.8423,-20.9336)">
                <rect x="98.625" y="740" width="736.072" height="81.994"/>
            </g>
            <g transform="matrix(-0.000807506,1.06651,-1.04464,-0.000824408,1747.61,48.5675)">
                <path d="M716.546,692.685L850.886,926.691L582.207,926.691L716.546,692.685Z"/>
            </g>
        </g>
    </g>
</svg>
